GIL08_slow4_ik
nRows=3
nColumns=375

# SIMM Motion File Header:
name GIL08_slow4_ik
datacolumns 375
datarows 3
otherdata 1
range 0.21667000 0.23333000
endheader
time	pelvis_tx	pelvis_ty	pelvis_tz	pelvis_tilt	pelvis_list	pelvis_rotation	hip_flexion_r	hip_adduction_r	hip_rotation_r	knee_angle_r	ankle_angle_r	hip_flexion_l	hip_adduction_l	hip_rotation_l	knee_angle_l	ankle_angle_l	lumbar_extension	lumbar_bending	lumbar_rotation	subtalar_angle_r	mtp_angle_r	subtalar_angle_l	mtp_angle_l	asis_r_px	asis_r_py	asis_r_pz	asis_l_px	asis_l_py	asis_l_pz	midasis_px	midasis_py	midasis_pz	psis_r_px	psis_r_py	psis_r_pz	psis_l_px	psis_l_py	psis_l_pz	hip_r_px	hip_r_py	hip_r_pz	hip_l_px	hip_l_py	hip_l_pz	midhip_px	midhip_py	midhip_pz	epicondLat_r_px	epicondLat_r_py	epicondLat_r_pz	epicondMed_r_px	epicondMed_r_py	epicondMed_r_pz	thighwand_r_px	thighwand_r_py	thighwand_r_pz	upperleg1_r_px	upperleg1_r_py	upperleg1_r_pz	upperleg2_r_px	upperleg2_r_py	upperleg2_r_pz	malleolusLat_r_px	malleolusLat_r_py	malleolusLat_r_pz	malleolusMedv_r_px	malleolusMedv_r_py	malleolusMedv_r_pz	shankwand_r_px	shankwand_r_py	shankwand_r_pz	lowerleg1_r_px	lowerleg1_r_py	lowerleg1_r_pz	knee_r_px	knee_r_py	knee_r_pz	ankle_r_px	ankle_r_py	ankle_r_pz	toe_r_px	toe_r_py	toe_r_pz	epicondLat_l_px	epicondLat_l_py	epicondLat_l_pz	epicondMed_l_px	epicondMed_l_py	epicondMed_l_pz	thighwand_l_px	thighwand_l_py	thighwand_l_pz	upperleg1_l_px	upperleg1_l_py	upperleg1_l_pz	upperleg2_l_px	upperleg2_l_py	upperleg2_l_pz	malleolusLat_l_px	malleolusLat_l_py	malleolusLat_l_pz	malleolusMedv_l_px	malleolusMedv_l_py	malleolusMedv_l_pz	shankwand_l_px	shankwand_l_py	shankwand_l_pz	lowerleg1_l_px	lowerleg1_l_py	lowerleg1_l_pz	knee_l_px	knee_l_py	knee_l_pz	ankle_l_px	ankle_l_py	ankle_l_pz	toe_l_px	toe_l_py	toe_l_pz	subclavicle_r_px	subclavicle_r_py	subclavicle_r_pz	subclavicle_l_px	subclavicle_l_py	subclavicle_l_pz	neck_px	neck_py	neck_pz	sternalnotch_px	sternalnotch_py	sternalnotch_pz	xyphoidprocess_px	xyphoidprocess_py	xyphoidprocess_pz	midhip_tx	midhip_ty	midhip_tz	hip_r_tx	hip_r_ty	hip_r_tz	hip_l_tx	hip_l_ty	hip_l_tz	knee_r_tx	knee_r_ty	knee_r_tz	knee_l_tx	knee_l_ty	knee_l_tz	ankle_r_tx	ankle_r_ty	ankle_r_tz	ankle_l_tx	ankle_l_ty	ankle_l_tz	midasis_tx	midasis_ty	midasis_tz	asis_r_tx	asis_r_ty	asis_r_tz	asis_l_tx	asis_l_ty	asis_l_tz	psis_r_tx	psis_r_ty	psis_r_tz	psis_l_tx	psis_l_ty	psis_l_tz	epicondLat_r_tx	epicondLat_r_ty	epicondLat_r_tz	epicondLat_l_tx	epicondLat_l_ty	epicondLat_l_tz	epicondMed_r_tx	epicondMed_r_ty	epicondMed_r_tz	epicondMed_l_tx	epicondMed_l_ty	epicondMed_l_tz	malleolusLat_r_tx	malleolusLat_r_ty	malleolusLat_r_tz	malleolusLat_l_tx	malleolusLat_l_ty	malleolusLat_l_tz	malleolusMedv_r_tx	malleolusMedv_r_ty	malleolusMedv_r_tz	malleolusMedv_l_tx	malleolusMedv_l_ty	malleolusMedv_l_tz	neck_tx	neck_ty	neck_tz	subclavicle_r_tx	subclavicle_r_ty	subclavicle_r_tz	subclavicle_l_tx	subclavicle_l_ty	subclavicle_l_tz	sternalnotch_tx	sternalnotch_ty	sternalnotch_tz	xyphoidprocess_tx	xyphoidprocess_ty	xyphoidprocess_tz	thighwand_r_tx	thighwand_r_ty	thighwand_r_tz	thighwand_l_tx	thighwand_l_ty	thighwand_l_tz	upperleg1_r_tx	upperleg1_r_ty	upperleg1_r_tz	upperleg1_l_tx	upperleg1_l_ty	upperleg1_l_tz	upperleg2_r_tx	upperleg2_r_ty	upperleg2_r_tz	upperleg2_l_tx	upperleg2_l_ty	upperleg2_l_tz	shankwand_r_tx	shankwand_r_ty	shankwand_r_tz	shankwand_l_tx	shankwand_l_ty	shankwand_l_tz	lowerleg1_r_tx	lowerleg1_r_ty	lowerleg1_r_tz	lowerleg1_l_tx	lowerleg1_l_ty	lowerleg1_l_tz	toe_r_tx	toe_r_ty	toe_r_tz	toe_l_tx	toe_l_ty	toe_l_tz	ground_force_vx	ground_force_vy	ground_force_vz	ground_force_px	ground_force_py	ground_force_pz	ground_force_vx	ground_force_vy	ground_force_vz	ground_force_px	ground_force_py	ground_force_pz	ground_torque_x	ground_torque_y	ground_torque_z	ground_torque_x	ground_torque_y	ground_torque_z	ground_marker_px	ground_marker_py	ground_marker_pz	ground_marker_px	ground_marker_py	ground_marker_pz	ground_marker_px	ground_marker_py	ground_marker_pz	ground_marker_px	ground_marker_py	ground_marker_pz	ground_marker_px	ground_marker_py	ground_marker_pz	ground_marker_px	ground_marker_py	ground_marker_pz	ground_marker_px	ground_marker_py	ground_marker_pz	ground_marker_px	ground_marker_py	ground_marker_pz	ground_marker_px	ground_marker_py	ground_marker_pz	ground_marker_px	ground_marker_py	ground_marker_pz	ground_marker_px	ground_marker_py	ground_marker_pz	ground_marker_px	ground_marker_py	ground_marker_pz	ground_marker_px	ground_marker_py	ground_marker_pz	ground_marker_px	ground_marker_py	ground_marker_pz	ground_marker_px	ground_marker_py	ground_marker_pz	ground_marker_px	ground_marker_py	ground_marker_pz	ground_marker_px	ground_marker_py	ground_marker_pz	ground_marker_px	ground_marker_py	ground_marker_pz	ground_marker_px	ground_marker_py	ground_marker_pz	ground_marker_px	ground_marker_py	ground_marker_pz	ground_marker_px	ground_marker_py	ground_marker_pz	ground_marker_px	ground_marker_py	ground_marker_pz	ground_marker_px	ground_marker_py	ground_marker_pz	ground_marker_px	ground_marker_py	ground_marker_pz	ground_marker_px	ground_marker_py	ground_marker_pz	ground_marker_px	ground_marker_py	ground_marker_pz	ground_marker_px	ground_marker_py	ground_marker_pz	ground_marker_px	ground_marker_py	ground_marker_pz	ground_marker_px	ground_marker_py	ground_marker_pz	ground_marker_px	ground_marker_py	ground_marker_pz	ground_marker_px	ground_marker_py	ground_marker_pz	ground_marker_px	ground_marker_py	ground_marker_pz	ground_marker_px	ground_marker_py	ground_marker_pz	ground_marker_px	ground_marker_py	ground_marker_pz	ground_marker_px	ground_marker_py	ground_marker_pz	ground_marker_px	ground_marker_py	ground_marker_pz	ground_marker_px	ground_marker_py	ground_marker_pz
      0.21667000	     -2.16742545	      0.96006567	      0.21530593	      3.79823614	      3.63979229	     -5.31511853	     -9.51115865	     -6.92514255	      6.68945860	    -37.19460404	    -10.97089615	      6.24691311	      2.43367084	      4.40323355	     -5.96745526	     -3.83884185	     -7.56353161	     -8.31890587	      7.04564109	      0.00000000	      0.00000000	      0.00000000	      0.00000000	     -2.12927788	      0.97559070	      0.31979019	     -2.11780826	      0.99367771	      0.10791543	     -2.15584815	      0.96076562	      0.21638278	     -2.32880737	      0.97879362	      0.24614921	     -2.32646037	      0.98687158	      0.15837985	     -2.22838553	      0.89695753	      0.27541211	     -2.21612442	      0.90657385	      0.13734083	     -2.22225498	      0.90176569	      0.20637647	     -2.22404682	      0.46030994	      0.34178151	     -2.25234855	      0.47828612	      0.22596158	     -2.17169473	      0.57703238	      0.41022443	     -2.15928116	      0.63246170	      0.33538183	     -2.17024382	      0.55068061	      0.31664919	     -2.57771440	      0.17534859	      0.35882025	     -2.58147464	      0.17281628	      0.29042922	     -2.50702937	      0.21238462	      0.41971673	     -2.47799720	      0.26134541	      0.35497984	     -2.27207224	      0.48187506	      0.29309756	     -2.55851091	      0.17996971	      0.31624366	     -2.52461620	      0.06493117	      0.31469309	     -2.09741702	      0.48790240	      0.06690122	     -2.13249391	      0.48725211	      0.16927638	     -1.99333080	      0.64707056	      0.14844880	     -2.07040389	      0.69392229	      0.09903803	     -2.06509449	      0.60734409	      0.09622711	     -2.12157269	      0.06252104	      0.07846685	     -2.12285631	      0.06872273	      0.14802340	     -2.02277235	      0.17501776	      0.13912384	     -2.09001252	      0.22269879	      0.11959556	     -2.14965471	      0.49840218	      0.13218400	     -2.12125444	      0.08273679	      0.12012568	     -1.99719566	      0.03858216	      0.12661115	     -2.19515021	      1.37522972	      0.27403349	     -2.19510355	      1.36873003	      0.11852110	     -2.29510445	      1.44267852	      0.18272535	     -2.20745689	      1.37298523	      0.19226740	     -2.16743567	      1.17200324	      0.19401785	     -2.22907600	      0.89600800	      0.20385700	     -2.23090100	      0.88316200	      0.25207900	     -2.22117700	      0.88976600	      0.14615900	     -2.27579500	      0.46722200	      0.28083700	     -2.14818300	      0.48404100	      0.13339800	     -2.56526900	      0.16298900	      0.29325100	     -2.12429500	      0.06790100	      0.15369600	     -2.14684200	      0.98200600	      0.21234600	     -2.15623400	      0.97562800	      0.31465300	     -2.13745000	      0.98838500	      0.11003900	     -2.35092800	      1.00890000	      0.23945300	     -2.34647400	      1.01411300	      0.15472300	     -2.27312700	      0.47103500	      0.34015500	     -2.13805300	      0.48770400	      0.07488100	     -2.26014000	      0.46995500	      0.22228300	     -2.16737300	      0.48094700	      0.17902600	     -2.57144100	      0.17036100	      0.33001400	     -2.12755800	      0.06579600	      0.11438800	     -2.55979700	      0.17227100	      0.26130300	     -2.11961800	      0.07805400	      0.18273500	     -2.29266900	      1.46376600	      0.18338700	     -2.19403400	      1.40970500	      0.26213700	     -2.19421500	      1.40021800	      0.11903600	     -2.20652100	      1.40490700	      0.18663500	     -2.15093500	      1.20771000	      0.19287800	     -2.23859900	      0.57281300	      0.41876700	     -2.02422700	      0.63206200	      0.13972600	     -2.20519900	      0.62904200	      0.34912500	     -2.10243600	      0.68002600	      0.09054200	     -2.20914000	      0.54651900	      0.33063700	     -2.09999700	      0.59246200	      0.09401000	     -2.51260600	      0.22787000	      0.39638300	     -2.02780300	      0.18975200	      0.15149300	     -2.48040200	      0.27496600	      0.33257200	     -2.09682500	      0.23288400	      0.13827700	     -2.51615300	      0.05437800	      0.27165000	     -1.99558100	      0.04218000	      0.14897800	      0.00000000	      0.00000000	      0.00000000	     -1.69904846	      0.00000000	      0.24741010	    -50.54240940	    556.73713565	     14.41557115	     -2.10814990	      0.00000000	      0.14927911	      0.00000000	      0.00000000	      0.00000000	      0.00000000	      0.71717896	      0.00000000	     -2.22907639	      0.89600801	      0.20385744	     -2.23090053	      0.88316214	      0.25207850	     -2.22117686	      0.88976574	      0.14615875	     -2.27579546	      0.46722215	      0.28083703	     -2.14818335	      0.48404071	      0.13339829	     -2.56526923	      0.16298871	      0.29325059	     -2.12429547	      0.06790069	      0.15369648	     -2.14684153	      0.98200631	      0.21234585	     -2.15623379	      0.97562802	      0.31465274	     -2.13744950	      0.98838466	      0.11003897	     -2.35092759	      1.00889969	      0.23945294	     -2.34647393	      1.01411319	      0.15472323	     -2.27312660	      0.47103539	      0.34015474	     -2.13805342	      0.48770359	      0.07488149	     -2.26013994	      0.46995464	      0.22228296	     -2.16737294	      0.48094723	      0.17902620	     -2.57144141	      0.17036133	      0.33001402	     -2.12755752	      0.06579605	      0.11438771	     -2.55979705	      0.17227127	      0.26130274	     -2.11961818	      0.07805365	      0.18273519	     -2.29266930	      1.46376622	      0.18338688	     -2.19403386	      1.40970540	      0.26213700	     -2.19421458	      1.40021849	      0.11903612	     -2.20652127	      1.40490675	      0.18663518	     -2.15093517	      1.20770979	      0.19287845	     -2.23859882	      0.57281303	      0.41876748	     -2.02422667	      0.63206190	      0.13972645	     -2.20519924	      0.62904215	      0.34912521	     -2.10243607	      0.68002552	      0.09054220	     -2.20913959	      0.54651886	      0.33063665	     -2.09999728	      0.59246224	      0.09400984	     -2.51260638	      0.22787045	      0.39638290	     -2.02780294	      0.18975164	      0.15149304	     -2.48040152	      0.27496597	      0.33257249	     -2.09682512	      0.23288359	      0.13827743	     -2.51615334	      0.05437841	      0.27165034	     -1.99558091	      0.04217980	      0.14897794
      0.22500000	     -2.16108637	      0.96061160	      0.21435047	      3.73154160	      3.60079675	     -5.17183279	     -8.84774765	     -6.93592386	      6.64634328	    -38.35187820	    -10.80559960	      5.87679576	      2.48486486	      4.23323013	     -5.94559118	     -3.48225599	     -7.50728966	     -8.35325218	      7.10107494	      0.00000000	      0.00000000	      0.00000000	      0.00000000	     -2.12266775	      0.97618615	      0.31872799	     -2.11169827	      0.99408324	      0.10681062	     -2.14950578	      0.96130080	      0.21539841	     -2.32237346	      0.97952804	      0.24557246	     -2.32023305	      0.98752975	      0.15779083	     -2.22196265	      0.89761551	      0.27465878	     -2.21002966	      0.90710325	      0.13654987	     -2.21599615	      0.90235938	      0.20560433	     -2.21297043	      0.46117943	      0.34194567	     -2.24156504	      0.47861130	      0.22611447	     -2.16178687	      0.57859090	      0.41009323	     -2.15002517	      0.63398889	      0.33512226	     -2.16014395	      0.55205749	      0.31657252	     -2.56970830	      0.17851737	      0.35992094	     -2.57350208	      0.17582076	      0.29153804	     -2.49866101	      0.21504832	      0.42070084	     -2.46916668	      0.26353658	      0.35581738	     -2.26113235	      0.48188688	      0.29326583	     -2.55046691	      0.18282806	      0.31732890	     -2.51735509	      0.06755718	      0.31616554	     -2.09485768	      0.48744059	      0.06613940	     -2.12935695	      0.48721976	      0.16871247	     -1.98912317	      0.64595773	      0.14683004	     -2.06612293	      0.69330457	      0.09777820	     -2.06147708	      0.60668458	      0.09508203	     -2.12196608	      0.06227856	      0.07858018	     -2.12281194	      0.06860711	      0.14813201	     -2.02202766	      0.17417253	      0.13848294	     -2.08903699	      0.22229732	      0.11925203	     -2.14664767	      0.49843879	      0.13169871	     -2.12126851	      0.08256212	      0.12020141	     -1.99721220	      0.03830143	      0.12597172	     -2.18849517	      1.37594179	      0.27252505	     -2.18897561	      1.36921672	      0.11702297	     -2.28874796	      1.44327321	      0.18145790	     -2.20107875	      1.37358065	      0.19080439	     -2.16108106	      1.17259539	      0.19271082	     -2.22280000	      0.89661700	      0.20327900	     -2.22451500	      0.88365400	      0.25126900	     -2.21502800	      0.89020200	      0.14532400	     -2.26498900	      0.46723000	      0.28072500	     -2.14522800	      0.48423800	      0.13273700	     -2.55731900	      0.16587500	      0.29445900	     -2.12423500	      0.06789800	      0.15365900	     -2.14044400	      0.98239200	      0.21130100	     -2.14961000	      0.97606500	      0.31366100	     -2.13127800	      0.98872000	      0.10894000	     -2.34471400	      1.00940100	      0.23887300	     -2.34016900	      1.01481100	      0.15442500	     -2.26230300	      0.47116400	      0.34003400	     -2.13539100	      0.48774600	      0.07416100	     -2.25019000	      0.46971000	      0.22230900	     -2.16455700	      0.48126800	      0.17834300	     -2.56305200	      0.17311600	      0.33132000	     -2.12748600	      0.06575900	      0.11435100	     -2.55199600	      0.17568500	      0.26264500	     -2.11955400	      0.07810200	      0.18273700	     -2.28631700	      1.46433100	      0.18210300	     -2.18743300	      1.41028500	      0.26050500	     -2.18804100	      1.40055900	      0.11751500	     -2.20014600	      1.40536900	      0.18509500	     -2.14469100	      1.20814100	      0.19151500	     -2.22879600	      0.57323200	      0.41847300	     -2.02025400	      0.63112400	      0.13817600	     -2.19606000	      0.62948200	      0.34859900	     -2.09831300	      0.67968500	      0.08937100	     -2.19942700	      0.54694100	      0.33032600	     -2.09664200	      0.59212900	      0.09288600	     -2.50287300	      0.22980700	      0.39737500	     -2.02705700	      0.18913300	      0.15133300	     -2.47094600	      0.27724400	      0.33345200	     -2.09577500	      0.23268800	      0.13791300	     -2.50927500	      0.05714400	      0.27174500	     -1.99555700	      0.04208000	      0.14898800	      0.00000000	      0.00000000	      0.00000000	     -1.69447913	      0.00000000	      0.24725949	    -48.92209086	    565.05534580	     14.79083776	     -2.10793188	      0.00000000	      0.14929285	      0.00000000	      0.00000000	      0.00000000	      0.00000000	      0.72652063	      0.00000000	     -2.22280049	      0.89661694	      0.20327911	     -2.22451520	      0.88365352	      0.25126868	     -2.21502829	      0.89020228	      0.14532402	     -2.26498938	      0.46722999	      0.28072509	     -2.14522839	      0.48423803	      0.13273726	     -2.55731869	      0.16587485	      0.29445928	     -2.12423515	      0.06789837	      0.15365866	     -2.14044404	      0.98239249	      0.21130058	     -2.14960980	      0.97606528	      0.31366149	     -2.13127828	      0.98871970	      0.10893967	     -2.34471416	      1.00940108	      0.23887311	     -2.34016943	      1.01481104	      0.15442491	     -2.26230335	      0.47116429	      0.34003413	     -2.13539147	      0.48774552	      0.07416097	     -2.25018978	      0.46970984	      0.22230919	     -2.16455746	      0.48126799	      0.17834274	     -2.56305170	      0.17311621	      0.33131975	     -2.12748647	      0.06575917	      0.11435087	     -2.55199575	      0.17568512	      0.26264459	     -2.11955428	      0.07810213	      0.18273745	     -2.28631687	      1.46433103	      0.18210307	     -2.18743324	      1.41028535	      0.26050466	     -2.18804145	      1.40055859	      0.11751523	     -2.20014596	      1.40536940	      0.18509510	     -2.14469051	      1.20814133	      0.19151497	     -2.22879553	      0.57323170	      0.41847304	     -2.02025414	      0.63112408	      0.13817582	     -2.19605970	      0.62948173	      0.34859869	     -2.09831285	      0.67968512	      0.08937115	     -2.19942713	      0.54694104	      0.33032608	     -2.09664249	      0.59212941	      0.09288584	     -2.50287318	      0.22980671	      0.39737514	     -2.02705717	      0.18913257	      0.15133274	     -2.47094584	      0.27724415	      0.33345211	     -2.09577489	      0.23268805	      0.13791320	     -2.50927520	      0.05714418	      0.27174488	     -1.99555743	      0.04207960	      0.14898817
      0.23333000	     -2.15486435	      0.96112761	      0.21334765	      3.67672194	      3.56231694	     -5.02566338	     -8.18897602	     -6.92411928	      6.67576128	    -39.44270881	    -10.19450391	      5.50512406	      2.53710680	      4.08046804	     -5.93362856	     -3.12219523	     -7.47033183	     -8.37542664	      7.14398000	      0.00000000	      0.00000000	      0.00000000	      0.00000000	     -2.11617274	      0.97675850	      0.31761586	     -2.10571837	      0.99447014	      0.10565687	     -2.14328062	      0.96180844	      0.21436609	     -2.31605783	      0.98019885	      0.24495648	     -2.31413031	      0.98812566	      0.15716312	     -2.21563994	      0.89823045	      0.27386042	     -2.20404440	      0.90759351	      0.13571426	     -2.20984217	      0.90291198	      0.20478734	     -2.20186223	      0.46202053	      0.34180097	     -2.23089540	      0.47896607	      0.22600670	     -2.15177937	      0.58007580	      0.40965348	     -2.14077210	      0.63547802	      0.33457116	     -2.15006046	      0.55341477	      0.31617043	     -2.56123586	      0.18128635	      0.36100355	     -2.56514941	      0.17846137	      0.29263259	     -2.48979857	      0.21736287	      0.42159747	     -2.45999139	      0.26545002	      0.35655864	     -2.25022418	      0.48190176	      0.29320103	     -2.54201966	      0.18533577	      0.31837452	     -2.50866076	      0.07013269	      0.31762982	     -2.09232390	      0.48698900	      0.06536268	     -2.12626617	      0.48718302	      0.16812147	     -1.98499802	      0.64485669	      0.14522130	     -2.06191533	      0.69268733	      0.09651066	     -2.05791679	      0.60603153	      0.09393013	     -2.12237967	      0.06206010	      0.07865565	     -2.12280330	      0.06850717	      0.14820044	     -2.02132632	      0.17333812	      0.13783091	     -2.08809582	      0.22190656	      0.11888319	     -2.14367727	      0.49847015	      0.13118351	     -2.12131243	      0.08240559	      0.12023879	     -1.99726149	      0.03804498	      0.12531565	     -2.18194896	      1.37658485	      0.27106492	     -2.18293269	      1.36967084	      0.11557351	     -2.28247894	      1.44382985	      0.18023980	     -2.19479669	      1.37412742	      0.18938822	     -2.15484108	      1.17313492	      0.19141013	     -2.21662200	      0.89716000	      0.20258200	     -2.21822800	      0.88411200	      0.25049600	     -2.20898900	      0.89060700	      0.14452600	     -2.25419400	      0.46726100	      0.28049600	     -2.14230400	      0.48442600	      0.13212200	     -2.54896200	      0.16842700	      0.29554400	     -2.12420000	      0.06789400	      0.15359900	     -2.13417100	      0.98276400	      0.21028500	     -2.14310200	      0.97648500	      0.31272500	     -2.12523900	      0.98904300	      0.10784500	     -2.33853300	      1.00984600	      0.23844300	     -2.33404100	      1.01543900	      0.15410700	     -2.25141400	      0.47128900	      0.33979500	     -2.13275000	      0.48778500	      0.07349000	     -2.23998300	      0.46948200	      0.22211400	     -2.16231300	      0.48177300	      0.17790200	     -2.55425900	      0.17551300	      0.33249900	     -2.12741300	      0.06572800	      0.11429000	     -2.54378900	      0.17870900	      0.26383800	     -2.11944900	      0.07814700	      0.18266700	     -2.28001800	      1.46491800	      0.18085700	     -2.18086600	      1.41081200	      0.25892900	     -2.18200300	      1.40084900	      0.11604400	     -2.19385800	      1.40579000	      0.18361700	     -2.13867400	      1.20849000	      0.19017400	     -2.21882500	      0.57362200	      0.41809600	     -2.01636000	      0.63016000	      0.13670200	     -2.18679500	      0.62992500	      0.34796500	     -2.09424800	      0.67930100	      0.08830600	     -2.18952100	      0.54731100	      0.32983400	     -2.09361700	      0.59171600	      0.09189700	     -2.49282000	      0.23141400	      0.39825000	     -2.02635100	      0.18854100	      0.15124200	     -2.46130300	      0.27929000	      0.33424100	     -2.09522300	      0.23250000	      0.13772500	     -2.50111200	      0.06006300	      0.27181600	     -1.99553400	      0.04198500	      0.14899200	      0.00000000	      0.00000000	      0.00000000	     -1.69031042	      0.00000000	      0.24713034	    -46.97027716	    572.59977712	     15.43025453	     -2.10767773	      0.00000000	      0.14924792	      0.00000000	      0.00000000	      0.00000000	      0.00000000	      0.74097546	      0.00000000	     -2.21662188	      0.89715981	      0.20258224	     -2.21822810	      0.88411224	      0.25049621	     -2.20898890	      0.89060730	      0.14452635	     -2.25419402	      0.46726114	      0.28049648	     -2.14230394	      0.48442551	      0.13212216	     -2.54896212	      0.16842693	      0.29554361	     -2.12419987	      0.06789426	      0.15359908	     -2.13417077	      0.98276389	      0.21028467	     -2.14310217	      0.97648519	      0.31272474	     -2.12523937	      0.98904258	      0.10784459	     -2.33853340	      1.00984597	      0.23844258	     -2.33404088	      1.01543856	      0.15410690	     -2.25141430	      0.47128895	      0.33979490	     -2.13274980	      0.48778459	      0.07349040	     -2.23998308	      0.46948236	      0.22211413	     -2.16231275	      0.48177311	      0.17790213	     -2.55425930	      0.17551287	      0.33249938	     -2.12741303	      0.06572776	      0.11428964	     -2.54378915	      0.17870864	      0.26383755	     -2.11944890	      0.07814713	      0.18266745	     -2.28001785	      1.46491814	      0.18085688	     -2.18086624	      1.41081202	      0.25892949	     -2.18200350	      1.40084863	      0.11604445	     -2.19385767	      1.40578961	      0.18361694	     -2.13867426	      1.20848978	      0.19017388	     -2.21882486	      0.57362199	      0.41809613	     -2.01636028	      0.63016033	      0.13670167	     -2.18679476	      0.62992543	      0.34796530	     -2.09424829	      0.67930073	      0.08830613	     -2.18952060	      0.54731143	      0.32983351	     -2.09361720	      0.59171575	      0.09189653	     -2.49281979	      0.23141420	      0.39825034	     -2.02635074	      0.18854076	      0.15124245	     -2.46130323	      0.27928951	      0.33424094	     -2.09522343	      0.23249987	      0.13772455	     -2.50111246	      0.06006271	      0.27181613	     -1.99553406	      0.04198541	      0.14899154
